# 3ds Max Wavefront OBJ Exporter v0.99 - (c)2007 guruware
# File Created: 16.05.2023 00:40:47

mtllib lv2.mtl

#
# object Cylinder001
#

v  0.3260 0.1142 -0.0000
v  0.3063 0.1142 -0.1115
v  0.1130 0.7480 -0.0411
v  0.1202 0.7480 0.0000
v  0.2497 0.1142 -0.2095
v  0.0921 0.7480 -0.0773
v  0.1630 0.1142 -0.2823
v  0.0601 0.7480 -0.1041
v  0.0566 0.1142 -0.3210
v  0.0209 0.7480 -0.1184
v  -0.0566 0.1142 -0.3210
v  -0.0209 0.7480 -0.1184
v  -0.1630 0.1142 -0.2823
v  -0.0601 0.7480 -0.1041
v  -0.2497 0.1142 -0.2095
v  -0.0921 0.7480 -0.0773
v  -0.3063 0.1142 -0.1115
v  -0.1130 0.7480 -0.0411
v  -0.3260 0.1142 -0.0000
v  -0.1202 0.7480 -0.0000
v  -0.3063 0.1142 0.1115
v  -0.1130 0.7480 0.0411
v  -0.2497 0.1142 0.2095
v  -0.0921 0.7480 0.0773
v  -0.1630 0.1142 0.2823
v  -0.0601 0.7480 0.1041
v  -0.0566 0.1142 0.3210
v  -0.0209 0.7480 0.1184
v  0.0566 0.1142 0.3210
v  0.0209 0.7480 0.1184
v  0.1630 0.1142 0.2823
v  0.0601 0.7480 0.1041
v  0.2497 0.1142 0.2112
v  0.0921 0.7480 0.0773
v  0.3063 0.1142 0.1098
v  0.1130 0.7480 0.0411
v  0.2565 -0.0960 0.0000
v  0.2410 -0.0960 -0.0877
v  0.2410 -0.0960 0.0877
v  0.1965 -0.0960 0.1649
v  0.1283 -0.0960 0.2221
v  0.0445 -0.0960 0.2526
v  -0.0445 -0.0960 0.2526
v  -0.1283 -0.0960 0.2221
v  -0.1965 -0.0960 0.1649
v  -0.2410 -0.0960 0.0877
v  -0.2565 -0.0960 -0.0000
v  -0.2410 -0.0960 -0.0877
v  -0.1965 -0.0960 -0.1649
v  -0.1283 -0.0960 -0.2221
v  -0.0445 -0.0960 -0.2526
v  0.0445 -0.0960 -0.2526
v  0.1283 -0.0960 -0.2221
v  0.1965 -0.0960 -0.1649
v  0.0936 -0.1437 0.0000
v  0.0879 -0.1437 -0.0320
v  0.0879 -0.1437 0.0320
v  0.0717 -0.1437 0.0601
v  0.0468 -0.1437 0.0810
v  0.0162 -0.1437 0.0921
v  -0.0162 -0.1437 0.0921
v  -0.0468 -0.1437 0.0810
v  -0.0717 -0.1437 0.0601
v  -0.0879 -0.1437 0.0320
v  -0.0936 -0.1437 -0.0000
v  -0.0879 -0.1437 -0.0320
v  -0.0717 -0.1437 -0.0601
v  -0.0468 -0.1437 -0.0810
v  -0.0162 -0.1437 -0.0921
v  0.0162 -0.1437 -0.0921
v  0.0468 -0.1437 -0.0810
v  0.0717 -0.1437 -0.0601
v  0.0954 -0.1679 0.0000
v  0.0896 -0.1679 -0.0326
v  0.0896 -0.1679 0.0326
v  0.0731 -0.1679 0.0613
v  0.0477 -0.1679 0.0826
v  0.0166 -0.1679 0.0939
v  -0.0166 -0.1679 0.0939
v  -0.0477 -0.1679 0.0826
v  -0.0731 -0.1679 0.0613
v  -0.0896 -0.1679 0.0326
v  -0.0954 -0.1679 -0.0000
v  -0.0896 -0.1679 -0.0326
v  -0.0731 -0.1679 -0.0613
v  -0.0477 -0.1679 -0.0826
v  -0.0166 -0.1679 -0.0939
v  0.0166 -0.1679 -0.0939
v  0.0477 -0.1679 -0.0826
v  0.0731 -0.1679 -0.0613
v  0.0972 -0.1679 0.0000
v  0.0914 -0.1679 -0.0333
v  0.0914 -0.1679 0.0333
v  0.0745 -0.1679 0.0625
v  0.0486 -0.1679 0.0842
v  0.0169 -0.1679 0.0957
v  -0.0169 -0.1679 0.0957
v  -0.0486 -0.1679 0.0842
v  -0.0745 -0.1679 0.0625
v  -0.0914 -0.1679 0.0333
v  -0.0972 -0.1679 -0.0000
v  -0.0914 -0.1679 -0.0333
v  -0.0745 -0.1679 -0.0625
v  -0.0486 -0.1679 -0.0842
v  -0.0169 -0.1679 -0.0957
v  0.0169 -0.1679 -0.0957
v  0.0486 -0.1679 -0.0842
v  0.0745 -0.1679 -0.0625
v  0.2054 -0.1679 0.0000
v  0.1930 -0.1679 -0.0702
v  0.1930 -0.1679 0.0702
v  0.1573 -0.1679 0.1320
v  0.1027 -0.1679 0.1779
v  0.0357 -0.1679 0.2023
v  -0.0357 -0.1679 0.2023
v  -0.1027 -0.1679 0.1779
v  -0.1573 -0.1679 0.1320
v  -0.1930 -0.1679 0.0702
v  -0.2054 -0.1679 -0.0000
v  -0.1930 -0.1679 -0.0702
v  -0.1573 -0.1679 -0.1320
v  -0.1027 -0.1679 -0.1779
v  -0.0357 -0.1679 -0.2023
v  0.0357 -0.1679 -0.2023
v  0.1027 -0.1679 -0.1779
v  0.1573 -0.1679 -0.1320
v  0.1680 -0.3235 0.0000
v  0.1579 -0.3235 -0.0575
v  0.1686 -0.2755 0.0614
v  0.1578 -0.3232 0.0575
v  0.1377 -0.2755 0.1154
v  0.0840 -0.3235 0.1455
v  0.1289 -0.3232 0.1080
v  0.0292 -0.3235 0.1655
v  -0.0292 -0.3235 0.1655
v  -0.0840 -0.3235 0.1455
v  -0.1377 -0.2755 0.1154
v  -0.1289 -0.3232 0.1080
v  -0.1686 -0.2755 0.0614
v  -0.1680 -0.3235 -0.0000
v  -0.1578 -0.3232 0.0575
v  -0.1579 -0.3235 -0.0575
v  -0.1287 -0.3235 -0.1080
v  -0.0840 -0.3235 -0.1455
v  -0.0312 -0.2753 -0.1769
v  -0.0292 -0.3235 -0.1655
v  0.0312 -0.2753 -0.1769
v  0.0840 -0.3235 -0.1455
v  0.0292 -0.3235 -0.1655
v  0.1287 -0.3235 -0.1080
v  0.0727 -0.3989 0.0000
v  0.0684 -0.3989 0.0249
v  0.0557 -0.3989 0.0468
v  0.0364 -0.3989 0.0630
v  0.0126 -0.3989 0.0716
v  -0.0126 -0.3989 0.0716
v  -0.0364 -0.3989 0.0630
v  -0.0557 -0.3989 0.0468
v  -0.0684 -0.3989 0.0249
v  -0.0727 -0.3989 -0.0000
v  -0.0684 -0.3989 -0.0249
v  -0.0557 -0.3989 -0.0468
v  -0.0364 -0.3989 -0.0630
v  -0.0126 -0.3989 -0.0716
v  0.0126 -0.3989 -0.0716
v  0.0364 -0.3989 -0.0630
v  0.0557 -0.3989 -0.0468
v  0.0684 -0.3989 -0.0249
v  0.0960 -0.3235 0.0000
v  0.0902 -0.3235 -0.0328
v  0.0902 -0.3235 0.0328
v  0.0735 -0.3235 0.0617
v  0.0480 -0.3235 0.0831
v  0.0167 -0.3235 0.0945
v  -0.0167 -0.3235 0.0945
v  -0.0480 -0.3235 0.0831
v  -0.0735 -0.3235 0.0617
v  -0.0902 -0.3235 0.0328
v  -0.0960 -0.3235 -0.0000
v  -0.0902 -0.3235 -0.0328
v  -0.0735 -0.3235 -0.0617
v  -0.0480 -0.3235 -0.0831
v  -0.0167 -0.3235 -0.0945
v  0.0167 -0.3235 -0.0945
v  0.0480 -0.3235 -0.0831
v  0.0735 -0.3235 -0.0617
v  0.0312 -0.3721 -0.3303
v  0.0292 -0.4203 -0.3189
v  -0.0292 -0.4203 -0.3189
v  -0.0312 -0.3721 -0.3303
v  0.2709 -0.3724 0.1916
v  0.2621 -0.4201 0.1842
v  0.2910 -0.4201 0.1336
v  0.3018 -0.3724 0.1376
v  -0.3018 -0.3724 0.1376
v  -0.2910 -0.4201 0.1336
v  -0.2621 -0.4201 0.1842
v  -0.2709 -0.3724 0.1916
v  -0.0292 -0.3787 -0.2529
v  0.0292 -0.3787 -0.2529
v  0.2337 -0.3785 0.1009
v  0.2048 -0.3785 0.1514
v  -0.2048 -0.3785 0.1514
v  -0.2337 -0.3785 0.1009
v  0.1667 -0.5208 0.0770
v  0.1993 -0.5445 0.0956
v  0.1829 -0.5445 0.1244
v  0.1502 -0.5208 0.1058
v  -0.0166 -0.5210 -0.1830
v  -0.0166 -0.5447 -0.2206
v  0.0166 -0.5447 -0.2206
v  0.0166 -0.5210 -0.1830
v  -0.1502 -0.5208 0.1058
v  -0.1829 -0.5445 0.1244
v  -0.1993 -0.5445 0.0956
v  -0.1667 -0.5208 0.0770
# 216 vertices

vn 1.0000 -0.0026 0.0013
vn 0.9397 -0.0026 -0.3420
vn 0.5896 0.7787 -0.2146
vn 0.6274 0.7787 0.0000
vn 0.7660 -0.0026 -0.6428
vn 0.4807 0.7787 -0.4033
vn 0.5000 -0.0026 -0.8660
vn 0.3137 0.7787 -0.5434
vn 0.1736 -0.0026 -0.9848
vn 0.1090 0.7787 -0.6179
vn -0.1736 -0.0026 -0.9848
vn -0.1090 0.7787 -0.6179
vn -0.5000 -0.0026 -0.8660
vn -0.3137 0.7787 -0.5434
vn -0.7660 -0.0026 -0.6428
vn -0.4807 0.7787 -0.4033
vn -0.9397 -0.0026 -0.3420
vn -0.5896 0.7787 -0.2146
vn -1.0000 -0.0026 -0.0000
vn -0.6274 0.7787 -0.0000
vn -0.9397 -0.0026 0.3420
vn -0.5896 0.7787 0.2146
vn -0.7660 -0.0026 0.6428
vn -0.4807 0.7787 0.4033
vn -0.5000 -0.0026 0.8660
vn -0.3137 0.7787 0.5434
vn -0.1736 -0.0026 0.9848
vn -0.1090 0.7787 0.6179
vn 0.1736 -0.0026 0.9848
vn 0.1090 0.7787 0.6179
vn 0.4952 -0.0026 0.8688
vn 0.3137 0.7787 0.5434
vn 0.7667 -0.0041 0.6420
vn 0.4803 0.7792 0.4028
vn 0.9418 -0.0018 0.3362
vn 0.5899 0.7784 0.2149
vn 0.7198 -0.6942 0.0000
vn 0.6763 -0.6942 -0.2462
vn 0.6770 -0.6933 0.2469
vn 0.5504 -0.6959 0.4613
vn 0.3599 -0.6942 0.6233
vn 0.1250 -0.6942 0.7088
vn -0.1250 -0.6942 0.7088
vn -0.3599 -0.6942 0.6233
vn -0.5514 -0.6942 0.4626
vn -0.6763 -0.6942 0.2462
vn -0.7198 -0.6942 -0.0000
vn -0.6763 -0.6942 -0.2462
vn -0.5514 -0.6942 -0.4626
vn -0.3599 -0.6942 -0.6233
vn -0.1250 -0.6942 -0.7088
vn 0.1250 -0.6942 -0.7088
vn 0.3599 -0.6942 -0.6233
vn 0.5514 -0.6942 -0.4626
vn 0.7969 -0.6042 0.0000
vn 0.7488 -0.6042 -0.2725
vn 0.7488 -0.6042 0.2725
vn 0.6104 -0.6042 0.5122
vn 0.3984 -0.6042 0.6901
vn 0.1384 -0.6042 0.7848
vn -0.1384 -0.6042 0.7848
vn -0.3984 -0.6042 0.6901
vn -0.6104 -0.6042 0.5122
vn -0.7488 -0.6042 0.2725
vn -0.7969 -0.6042 0.0000
vn -0.7488 -0.6042 -0.2725
vn -0.6104 -0.6042 -0.5122
vn -0.3984 -0.6042 -0.6901
vn -0.1384 -0.6042 -0.7848
vn 0.1384 -0.6042 -0.7848
vn 0.3984 -0.6042 -0.6901
vn 0.6104 -0.6042 -0.5122
vn 0.6353 0.7723 0.0000
vn 0.5970 0.7723 -0.2173
vn 0.5970 0.7723 0.2173
vn 0.4867 0.7723 0.4084
vn 0.3176 0.7723 0.5502
vn 0.1103 0.7723 0.6256
vn -0.1103 0.7723 0.6256
vn -0.3176 0.7723 0.5502
vn -0.4867 0.7723 0.4084
vn -0.5970 0.7723 0.2173
vn -0.6353 0.7723 0.0000
vn -0.5970 0.7723 -0.2173
vn -0.4867 0.7723 -0.4084
vn -0.3176 0.7723 -0.5502
vn -0.1103 0.7723 -0.6256
vn 0.1103 0.7723 -0.6256
vn 0.3176 0.7723 -0.5502
vn 0.4867 0.7723 -0.4084
vn -0.0000 1.0000 -0.0000
vn -0.0000 1.0000 0.0000
vn 0.0000 1.0000 -0.0000
vn 0.0000 1.0000 0.0000
vn 0.8147 0.5799 0.0000
vn 0.7656 0.5799 -0.2786
vn 0.7659 0.5795 0.2787
vn 0.6238 0.5804 0.5235
vn 0.4073 0.5799 0.7055
vn 0.1415 0.5799 0.8023
vn -0.1415 0.5799 0.8023
vn -0.4073 0.5799 0.7055
vn -0.6238 0.5804 0.5235
vn -0.7659 0.5795 0.2787
vn -0.8147 0.5799 0.0000
vn -0.7656 0.5799 -0.2786
vn -0.6241 0.5799 -0.5237
vn -0.4073 0.5799 -0.7055
vn -0.1415 0.5799 -0.8023
vn 0.1415 0.5799 -0.8023
vn 0.4073 0.5799 -0.7055
vn 0.6241 0.5799 -0.5237
vn 0.6577 -0.7532 0.0019
vn 0.6183 -0.7530 -0.2250
vn 0.8636 0.0573 0.5008
vn 0.3329 -0.8772 -0.3460
vn -0.2448 0.2476 0.9374
vn 0.3293 -0.7536 0.5690
vn -0.1328 -0.8759 0.4639
vn 0.1143 -0.7530 0.6480
vn -0.1143 -0.7530 0.6480
vn -0.3293 -0.7536 0.5690
vn 0.2449 0.2475 0.9374
vn 0.1328 -0.8759 0.4639
vn -0.8636 0.0573 0.5009
vn -0.6577 -0.7532 0.0019
vn -0.3329 -0.8772 -0.3460
vn -0.6183 -0.7530 -0.2250
vn -0.5040 -0.7530 -0.4229
vn -0.3290 -0.7530 -0.5698
vn -0.3988 0.0330 -0.9164
vn -0.4680 -0.8764 -0.1137
vn 0.3988 0.0330 -0.9164
vn 0.3290 -0.7530 -0.5698
vn 0.4680 -0.8764 -0.1137
vn 0.5040 -0.7530 -0.4229
vn 0.6336 -0.7737 0.0000
vn 0.5953 -0.7737 0.2167
vn 0.4853 -0.7737 0.4072
vn 0.3168 -0.7737 0.5487
vn 0.1100 -0.7737 0.6239
vn -0.1100 -0.7737 0.6239
vn -0.3168 -0.7737 0.5487
vn -0.4853 -0.7737 0.4072
vn -0.5953 -0.7737 0.2167
vn -0.6336 -0.7737 -0.0000
vn -0.5953 -0.7737 -0.2167
vn -0.4853 -0.7737 -0.4072
vn -0.3168 -0.7737 -0.5487
vn -0.1100 -0.7737 -0.6239
vn 0.1100 -0.7737 -0.6239
vn 0.3168 -0.7737 -0.5487
vn 0.4853 -0.7737 -0.4072
vn 0.5953 -0.7737 -0.2167
vn 0.5480 -0.8365 0.0000
vn 0.5150 -0.8365 -0.1874
vn 0.5164 -0.8355 0.1879
vn 0.4210 -0.8355 0.3532
vn 0.2740 -0.8365 0.4746
vn 0.0952 -0.8365 0.5397
vn -0.0952 -0.8365 0.5397
vn -0.2740 -0.8365 0.4746
vn -0.4210 -0.8355 0.3532
vn -0.5164 -0.8355 0.1879
vn -0.5480 -0.8365 0.0000
vn -0.5150 -0.8365 -0.1874
vn -0.4198 -0.8365 -0.3523
vn -0.2740 -0.8365 -0.4746
vn -0.0952 -0.8365 -0.5397
vn 0.0952 -0.8365 -0.5397
vn 0.2740 -0.8365 -0.4746
vn 0.4198 -0.8365 -0.3523
vn 0.6115 0.2921 -0.7353
vn 0.6672 -0.3557 -0.6544
vn -0.6672 -0.3557 -0.6544
vn -0.6115 0.2921 -0.7353
vn 0.3342 0.2912 0.8964
vn 0.2368 -0.3566 0.9037
vn 0.8993 -0.3556 -0.2546
vn 0.9420 0.2922 -0.1651
vn -0.9420 0.2922 -0.1651
vn -0.8993 -0.3556 -0.2546
vn -0.2368 -0.3566 0.9037
vn -0.3342 0.2912 0.8964
vn -0.8807 -0.1690 0.4425
vn 0.8807 -0.1690 0.4425
vn 0.0535 -0.1679 -0.9843
vn -0.8216 -0.1699 0.5441
vn 0.8216 -0.1699 0.5442
vn -0.0535 -0.1679 -0.9843
vn -0.4147 -0.2371 -0.8785
vn 0.3874 -0.8208 -0.4198
vn -0.1653 -0.8208 0.5468
vn -0.9675 -0.2372 0.0881
vn -0.5567 -0.2376 0.7960
vn -0.5567 -0.8208 -0.1283
vn 0.5567 -0.8208 -0.1283
vn 0.5567 -0.2376 0.7960
vn 0.9675 -0.2371 0.0882
vn 0.1653 -0.8208 0.5468
vn -0.3874 -0.8208 -0.4198
vn 0.4148 -0.2373 -0.8785
# 202 vertex normals

vt 0.7500 0.0000 1.0000
vt 0.8056 0.0000 1.0000
vt 0.8056 1.0000 1.0000
vt 0.7500 1.0000 1.0000
vt 0.8611 0.0000 1.0000
vt 0.8611 1.0000 1.0000
vt 0.9167 0.0000 1.0000
vt 0.9167 1.0000 1.0000
vt 0.9722 0.0000 1.0000
vt 0.9722 1.0000 1.0000
vt -0.0278 0.0000 1.0000
vt 0.0278 0.0000 1.0000
vt 0.0278 1.0000 1.0000
vt -0.0278 1.0000 1.0000
vt 0.0833 0.0000 1.0000
vt 0.0833 1.0000 1.0000
vt 0.1389 0.0000 1.0000
vt 0.1389 1.0000 1.0000
vt 0.1944 0.0000 1.0000
vt 0.1944 1.0000 1.0000
vt 0.2500 0.0000 1.0000
vt 0.2500 1.0000 1.0000
vt 0.3056 0.0000 1.0000
vt 0.3056 1.0000 1.0000
vt 0.3611 0.0000 1.0000
vt 0.3611 1.0000 1.0000
vt 0.4167 0.0000 1.0000
vt 0.4167 1.0000 1.0000
vt 0.4722 0.0000 1.0000
vt 0.4722 1.0000 1.0000
vt 0.5278 0.0000 1.0000
vt 0.5278 1.0000 1.0000
vt 0.5833 0.0000 1.0000
vt 0.5833 1.0000 1.0000
vt 0.6389 0.0000 1.0000
vt 0.6389 1.0000 1.0000
vt 0.6944 0.0000 1.0000
vt 0.6944 1.0000 1.0000
vt 0.9708 1.0000 0.8794
vt 0.9126 1.0000 0.6527
vt 0.8047 1.0000 0.3473
vt 0.6600 1.0000 0.0000
vt 0.4960 1.0000 -0.3473
vt 0.3325 1.0000 -0.6527
vt 0.1891 1.0000 -0.8794
vt 0.0833 1.0000 -1.0000
vt 0.0278 1.0000 -1.0000
vt 0.0292 1.0000 -0.8794
vt 0.0874 1.0000 -0.6527
vt 0.1953 1.0000 -0.3473
vt 0.3400 0.0000 0.0000
vt 0.1953 0.0000 -0.3473
vt 0.0874 0.0000 -0.6527
vt 0.0292 0.0000 -0.8794
vt 0.0278 0.0000 -1.0000
vt 0.0833 0.0000 -1.0000
vt 0.1891 0.0000 -0.8794
vt 0.3325 0.0000 -0.6527
vt 0.4960 0.0000 -0.3473
vt 0.6600 0.0000 -0.0000
vt 0.8047 0.0000 0.3473
vt 0.9126 0.0000 0.6527
vt 0.9708 0.0000 0.8794
# 63 texture coords

o Cylinder001
g Cylinder001
usemtl wire_086086086
s 8
f 1/1/1 2/2/2 3/3/3 4/4/4 
f 2/2/2 5/5/5 6/6/6 3/3/3 
f 5/5/5 7/7/7 8/8/8 6/6/6 
f 7/7/7 9/9/9 10/10/10 8/8/8 
f 9/11/9 11/12/11 12/13/12 10/14/10 
f 11/12/11 13/15/13 14/16/14 12/13/12 
f 13/15/13 15/17/15 16/18/16 14/16/14 
f 15/17/15 17/19/17 18/20/18 16/18/16 
f 17/19/17 19/21/19 20/22/20 18/20/18 
f 19/21/19 21/23/21 22/24/22 20/22/20 
f 21/23/21 23/25/23 24/26/24 22/24/22 
f 23/25/23 25/27/25 26/28/26 24/26/24 
f 25/27/25 27/29/27 28/30/28 26/28/26 
f 27/29/27 29/31/29 30/32/30 28/30/28 
f 29/31/29 31/33/31 32/34/32 30/32/30 
f 31/33/31 33/35/33 34/36/34 32/34/32 
f 33/35/33 35/37/35 36/38/36 34/36/34 
f 35/37/35 1/1/1 4/4/4 36/38/36 
s 1
f 36/38/36 4/4/4 3/3/3 6/6/6 8/8/8 10/10/10 12/39/12 14/40/14 16/41/16 18/42/18 20/43/20 22/44/22 24/45/24 26/46/26 28/47/28 30/48/30 32/49/32 34/50/34 
s off
f 2/2/2 1/1/1 37/1/37 38/2/38 
f 1/1/1 35/51/35 39/51/39 37/1/37 
f 35/51/35 33/52/33 40/52/40 39/51/39 
f 33/52/33 31/53/31 41/53/41 40/52/40 
f 31/53/31 29/54/29 42/54/42 41/53/41 
f 29/54/29 27/55/27 43/55/43 42/54/42 
f 27/55/27 25/56/25 44/56/44 43/55/43 
f 25/56/25 23/57/23 45/57/45 44/56/44 
f 23/57/23 21/58/21 46/58/46 45/57/45 
f 21/58/21 19/59/19 47/59/47 46/58/46 
f 19/59/19 17/60/17 48/60/48 47/59/47 
f 17/60/17 15/61/15 49/61/49 48/60/48 
f 15/61/15 13/62/13 50/62/50 49/61/49 
f 13/62/13 11/63/11 51/63/51 50/62/50 
f 11/63/11 9/9/9 52/9/52 51/63/51 
f 9/9/9 7/7/7 53/7/53 52/9/52 
f 7/7/7 5/5/5 54/5/54 53/7/53 
f 5/5/5 2/2/2 38/2/38 54/5/54 
f 38/2/38 37/1/37 55/1/55 56/2/56 
f 37/1/37 39/51/39 57/51/57 55/1/55 
f 39/51/39 40/52/40 58/52/58 57/51/57 
f 40/52/40 41/53/41 59/53/59 58/52/58 
f 41/53/41 42/54/42 60/54/60 59/53/59 
f 42/54/42 43/55/43 61/55/61 60/54/60 
f 43/55/43 44/56/44 62/56/62 61/55/61 
f 44/56/44 45/57/45 63/57/63 62/56/62 
f 45/57/45 46/58/46 64/58/64 63/57/63 
f 46/58/46 47/59/47 65/59/65 64/58/64 
f 47/59/47 48/60/48 66/60/66 65/59/65 
f 48/60/48 49/61/49 67/61/67 66/60/66 
f 49/61/49 50/62/50 68/62/68 67/61/67 
f 50/62/50 51/63/51 69/63/69 68/62/68 
f 51/63/51 52/9/52 70/9/70 69/63/69 
f 52/9/52 53/7/53 71/7/71 70/9/70 
f 53/7/53 54/5/54 72/5/72 71/7/71 
f 54/5/54 38/2/38 56/2/56 72/5/72 
f 56/2/56 55/1/55 73/1/73 74/2/74 
f 55/1/55 57/51/57 75/51/75 73/1/73 
f 57/51/57 58/52/58 76/52/76 75/51/75 
f 58/52/58 59/53/59 77/53/77 76/52/76 
f 59/53/59 60/54/60 78/54/78 77/53/77 
f 60/54/60 61/55/61 79/55/79 78/54/78 
f 61/55/61 62/56/62 80/56/80 79/55/79 
f 62/56/62 63/57/63 81/57/81 80/56/80 
f 63/57/63 64/58/64 82/58/82 81/57/81 
f 64/58/64 65/59/65 83/59/83 82/58/82 
f 65/59/65 66/60/66 84/60/84 83/59/83 
f 66/60/66 67/61/67 85/61/85 84/60/84 
f 67/61/67 68/62/68 86/62/86 85/61/85 
f 68/62/68 69/63/69 87/63/87 86/62/86 
f 69/63/69 70/9/70 88/9/88 87/63/87 
f 70/9/70 71/7/71 89/7/89 88/9/88 
f 71/7/71 72/5/72 90/5/90 89/7/89 
f 72/5/72 56/2/56 74/2/74 90/5/90 
f 74/2/74 73/1/73 91/1/91 92/2/92 
f 73/1/73 75/51/75 93/51/91 91/1/91 
f 75/51/75 76/52/76 94/52/91 93/51/91 
f 76/52/76 77/53/77 95/53/91 94/52/91 
f 77/53/77 78/54/78 96/54/91 95/53/91 
f 78/54/78 79/55/79 97/55/93 96/54/91 
f 79/55/79 80/56/80 98/56/93 97/55/93 
f 80/56/80 81/57/81 99/57/93 98/56/93 
f 81/57/81 82/58/82 100/58/93 99/57/93 
f 82/58/82 83/59/83 101/59/93 100/58/93 
f 83/59/83 84/60/84 102/60/94 101/59/93 
f 84/60/84 85/61/85 103/61/94 102/60/94 
f 85/61/85 86/62/86 104/62/94 103/61/94 
f 86/62/86 87/63/87 105/63/94 104/62/94 
f 87/63/87 88/9/88 106/9/92 105/63/94 
f 88/9/88 89/7/89 107/7/92 106/9/92 
f 89/7/89 90/5/90 108/5/92 107/7/92 
f 90/5/90 74/2/74 92/2/92 108/5/92 
f 92/2/92 91/1/91 109/1/95 110/2/96 
f 91/1/91 93/51/91 111/51/97 109/1/95 
f 93/51/91 94/52/91 112/52/98 111/51/97 
f 94/52/91 95/53/91 113/53/99 112/52/98 
f 95/53/91 96/54/91 114/54/100 113/53/99 
f 96/54/91 97/55/93 115/55/101 114/54/100 
f 97/55/93 98/56/93 116/56/102 115/55/101 
f 98/56/93 99/57/93 117/57/103 116/56/102 
f 99/57/93 100/58/93 118/58/104 117/57/103 
f 100/58/93 101/59/93 119/59/105 118/58/104 
f 101/59/93 102/60/94 120/60/106 119/59/105 
f 102/60/94 103/61/94 121/61/107 120/60/106 
f 103/61/94 104/62/94 122/62/108 121/61/107 
f 104/62/94 105/63/94 123/63/109 122/62/108 
f 105/63/94 106/9/92 124/9/110 123/63/109 
f 106/9/92 107/7/92 125/7/111 124/9/110 
f 107/7/92 108/5/92 126/5/112 125/7/111 
f 108/5/92 92/2/92 110/2/96 126/5/112 
f 110/2/96 109/1/95 127/1/113 128/2/114 
f 109/1/95 111/51/97 129/51/115 130/51/116 127/1/113 
f 111/51/97 112/52/98 131/52/117 129/51/115 
f 112/52/98 113/53/99 132/53/118 133/52/119 131/52/117 
f 113/53/99 114/54/100 134/54/120 132/53/118 
f 114/54/100 115/55/101 135/55/121 134/54/120 
f 115/55/101 116/56/102 136/56/122 135/55/121 
f 116/56/102 117/57/103 137/57/123 138/57/124 136/56/122 
f 117/57/103 118/58/104 139/58/125 137/57/123 
f 118/58/104 119/59/105 140/59/126 141/58/127 139/58/125 
f 119/59/105 120/60/106 142/60/128 140/59/126 
f 120/60/106 121/61/107 143/61/129 142/60/128 
f 121/61/107 122/62/108 144/62/130 143/61/129 
f 122/62/108 123/63/109 145/63/131 146/63/132 144/62/130 
f 123/63/109 124/9/110 147/9/133 145/63/131 
f 124/9/110 125/7/111 148/7/134 149/9/135 147/9/133 
f 125/7/111 126/5/112 150/5/136 148/7/134 
f 126/5/112 110/2/96 128/2/114 150/5/136 
f 151/1/137 152/51/138 153/52/139 154/53/140 155/54/141 156/55/142 157/56/143 158/57/144 159/58/145 160/59/146 161/60/147 162/61/148 163/62/149 164/63/150 165/9/151 166/7/152 167/5/153 168/2/154 
f 128/2/114 127/1/113 169/1/155 170/2/156 
f 127/1/113 130/51/116 171/51/157 169/1/155 
f 130/51/116 133/52/119 172/52/158 171/51/157 
f 133/52/119 132/53/118 173/53/159 172/52/158 
f 132/53/118 134/54/120 174/54/160 173/53/159 
f 134/54/120 135/55/121 175/55/161 174/54/160 
f 135/55/121 136/56/122 176/56/162 175/55/161 
f 136/56/122 138/57/124 177/57/163 176/56/162 
f 138/57/124 141/58/127 178/58/164 177/57/163 
f 141/58/127 140/59/126 179/59/165 178/58/164 
f 140/59/126 142/60/128 180/60/166 179/59/165 
f 142/60/128 143/61/129 181/61/167 180/60/166 
f 143/61/129 144/62/130 182/62/168 181/61/167 
f 144/62/130 146/63/132 183/63/169 182/62/168 
f 146/63/132 149/9/135 184/9/170 183/63/169 
f 149/9/135 148/7/134 185/7/171 184/9/170 
f 148/7/134 150/5/136 186/5/172 185/7/171 
f 150/5/136 128/2/114 170/2/156 186/5/172 
f 170/2/156 169/1/155 151/1/137 168/2/154 
f 169/1/155 171/51/157 152/51/138 151/1/137 
f 171/51/157 172/52/158 153/52/139 152/51/138 
f 172/52/158 173/53/159 154/53/140 153/52/139 
f 173/53/159 174/54/160 155/54/141 154/53/140 
f 174/54/160 175/55/161 156/55/142 155/54/141 
f 175/55/161 176/56/162 157/56/143 156/55/142 
f 176/56/162 177/57/163 158/57/144 157/56/143 
f 177/57/163 178/58/164 159/58/145 158/57/144 
f 178/58/164 179/59/165 160/59/146 159/58/145 
f 179/59/165 180/60/166 161/60/147 160/59/146 
f 180/60/166 181/61/167 162/61/148 161/60/147 
f 181/61/167 182/62/168 163/62/149 162/61/148 
f 182/62/168 183/63/169 164/63/150 163/62/149 
f 183/63/169 184/9/170 165/9/151 164/63/150 
f 184/9/170 185/7/171 166/7/152 165/9/151 
f 185/7/171 186/5/172 167/5/153 166/7/152 
f 186/5/172 170/2/156 168/2/154 167/5/153 
f 187/9/173 188/9/174 189/63/175 190/63/176 
f 191/52/177 192/52/178 193/51/179 194/51/180 
f 195/58/181 196/58/182 197/57/183 198/57/184 
f 149/9/135 146/63/132 199/63/185 200/9/186 
f 146/63/132 145/63/131 190/63/176 189/63/175 199/63/185 
f 145/63/131 147/9/133 187/9/173 190/63/176 
f 147/9/133 149/9/135 200/9/186 188/9/174 187/9/173 
f 133/52/119 130/51/116 201/51/187 202/52/188 
f 130/51/116 129/51/115 194/51/180 193/51/179 201/51/187 
f 129/51/115 131/52/117 191/52/177 194/51/180 
f 131/52/117 133/52/119 202/52/188 192/52/178 191/52/177 
f 141/58/127 138/57/124 203/57/189 204/58/190 
f 138/57/124 137/57/123 198/57/184 197/57/183 203/57/189 
f 137/57/123 139/58/125 195/58/181 198/57/184 
f 139/58/125 141/58/127 204/58/190 196/58/182 195/58/181 
f 205/51/191 206/51/192 207/52/193 208/52/194 
f 209/63/195 210/63/196 211/9/197 212/9/198 
f 213/57/199 214/57/200 215/58/201 216/58/202 
f 193/51/179 192/52/178 207/52/193 206/51/192 
f 192/52/178 202/52/188 208/52/194 207/52/193 
f 202/52/188 201/51/187 205/51/191 208/52/194 
f 201/51/187 193/51/179 206/51/192 205/51/191 
f 189/63/175 188/9/174 211/9/197 210/63/196 
f 188/9/174 200/9/186 212/9/198 211/9/197 
f 200/9/186 199/63/185 209/63/195 212/9/198 
f 199/63/185 189/63/175 210/63/196 209/63/195 
f 197/57/183 196/58/182 215/58/201 214/57/200 
f 196/58/182 204/58/190 216/58/202 215/58/201 
f 204/58/190 203/57/189 213/57/199 216/58/202 
f 203/57/189 197/57/183 214/57/200 213/57/199 
# 194 polygons

